# AST/ASF file generated using VICON BodyLanguage
# -----------------------------------------------
:version 1.10
:name VICON
:units
  mass 1.0
  length 0.45
  angle deg
:documentation
   .ast/.asf automatically generated from VICON data using
   VICON BodyBuilder and BodyLanguage model FoxedUp or BRILLIANT.MOD
:root
   order TX TY TZ RX RY RZ
   axis XYZ
   position 0 0 0  
   orientation 0 0 0 
:bonedata
  begin
     id 1 
     name lhipjoint
     direction 0.521689 -0.742065 0.420928 
     length 2.47002 
     axis 0 0 0  XYZ
  end
  begin
     id 2 
     name lfemur
     direction 0.34202 -0.939693 0  
     length 7.24654  
     axis 0 0 20  XYZ
    dof rx ry rz
    limits (-160.0 20.0)
           (-70.0 70.0)
           (-60.0 70.0)
  end
  begin
     id 3 
     name ltibia
     direction 0.34202 -0.939693 0   
     length 8.04849   
     axis 0 0 20   XYZ
    dof rx
    limits (-10.0 170.0)
  end
  begin
     id 4 
     name lfoot
     direction 0.0745411 -0.2048 0.975961   
     length 1.72367   
     axis -90 7.62852e-016 20   XYZ
    dof rx rz
    limits (-45.0 90.0)
           (-70.0 20.0)
  end
  begin
     id 5 
     name ltoes
     direction 1.53556e-011 -4.21901e-011 1   
     length 0.87311   
     axis -90 7.62852e-016 20   XYZ
    dof rx
    limits (-90.0 20.0)
  end
  begin
     id 6 
     name rhipjoint
     direction -0.52849 -0.738415 0.418857   
     length 2.48223  
     axis 0 0 0  XYZ 
  end
  begin
     id 7 
     name rfemur
     direction -0.34202 -0.939693 0   
     length 7.15571   
     axis 0 0 -20   XYZ
    dof rx ry rz
    limits (-160.0 20.0)
           (-70.0 70.0)
           (-70.0 60.0)
  end
  begin
     id 8 
     name rtibia
     direction -0.34202 -0.939693 0   
     length 7.81659   
     axis 0 0 -20   XYZ
    dof rx
    limits (-10.0 170.0)
 end
 begin
     id 9 
     name rfoot
     direction -0.0917348 -0.252039 0.963359   
     length 1.84382  
     axis -90 -7.62852e-016 -20   XYZ
    dof rx rz
    limits (-45.0 90.0)
           (-20.0 70.0)
  end
  begin
     id 10 
     name rtoes
     direction -1.53551e-011 -4.21879e-011 1   
     length 0.927771   
     axis -90 -7.62852e-016 -20   XYZ
    dof rx
    limits (-90.0 20.0)
  end
  begin
     id 11 
     name lowerback
     direction 0.00583058 0.999822 0.0179296   
     length 2.1429   
     axis 0 0 0   XYZ
    dof rx ry rz
    limits (-20.0 45.0)
           (-30.0 30.0)
           (-30.0 30.0)
  end
  begin
     id 12 
     name upperback
     direction -0.0137999 0.999752 -0.0175071   
     length 2.14252   
     axis 0 0 0   XYZ
    dof rx ry rz
    limits (-20.0 45.0)
           (-30.0 30.0)
           (-30.0 30.0)
  end
  begin
     id 13 
     name thorax
     direction -0.0158036 0.99955 -0.0254909   
     length 2.1383   
     axis 0 0 0   XYZ
    dof rx ry rz
    limits (-20.0 45.0)
           (-30.0 30.0)
           (-30.0 30.0)
  end
  begin
     id 14 
     name lowerneck
     direction -0.0101179 0.999403 -0.0330262   
     length 1.65808   
     axis 0 0 0   XYZ
    dof rx ry rz
    limits (-20.0 45.0)
           (-30.0 30.0)
           (-30.0 30.0)
  end
  begin
     id 15 
     name upperneck
     direction 0.0497734 0.995978 -0.074501   
     length 1.5897   
     axis 0 0 0   XYZ
    dof rx ry rz
    limits (-20.0 45.0)
           (-30.0 30.0)
           (-30.0 30.0)
  end
  begin
     id 16
     name head
     direction 0.0189524 0.999519 -0.0245438  
     length 1.74024  
     axis 0 0 0   XYZ
    dof rx ry rz
    limits (-20.0 45.0)
           (-30.0 30.0)
           (-30.0 30.0)
  end
  begin
     id 17 
     name lclavicle
     direction 0.945604 0.324422 0.0241537  
     length 3.59089  
     axis 0 0 0   XYZ
    dof ry rz
    limits (-20.0 10.0)
           (0.0 20.0)
  end
  begin
     id 18 
     name lhumerus
     direction 1 -4.48964e-011 -2.63524e-027   
     length 5.2391   
     axis 180 -30 -90   XYZ
    dof rx ry rz
    limits (-60.0 90.0)
           (-90.0 90.0)
           (-90.0 90.0)
  end
  begin
     id 19
     name lradius
     direction 1 -4.48969e-011 3.86978e-028   
     length 3.31467   
     axis 180 -30 -90   XYZ
    dof rx
    limits (-10.0 170.0)
  end
  begin
     id 20
     name lwrist
     direction 1 -4.48963e-011 7.20928e-028   
     length 1.65734   
     axis -5.52449e-016 90 90   XYZ
    dof ry
    limits (-180.0 0.0)
 end
  begin
     id 21 
     name lhand
     direction 1 -4.48964e-011 1.44186e-027   
     length 0.9659   
     axis -9.20027e-016 90 90   XYZ
    dof rx rz
    limits (-90.0 90.0)
           (-45.0 45.0)
  end
  begin
     id 22 
     name lfingers
     direction 1 -4.48965e-011 2.88371e-027   
     length 0.778733   
     axis -1.84005e-015 90 90   XYZ
    dof rx
    limits (0.0 90.0)
  end
  begin
     id 23
     name lthumb
     direction 0.707107 -6.34931e-011 0.707107   
     length 1.11811   
     axis -90 45 2.85299e-015   XYZ
    dof rx rz
    limits (-45.0 45.0)
           (-45.0 45.0)
  end
  begin
     id 24 
     name rclavicle
     direction -0.923762 0.370785 0.0958234   
     length 3.54196  
     axis 0 0 0   XYZ 
    dof ry rz
    limits (-10.0 20.0)
           (-20.0 0.0)
  end
  begin
     id 25 
     name rhumerus
     direction -1 -4.48966e-011 1.18702e-017  
     length 5.30252   
     axis 180 30 90   XYZ
    dof rx ry rz
    limits (-90.0 60.0)
           (-90.0 90.0)
           (-90.0 90.0)
  end
  begin
     id 26 
     name rradius
     direction -1 -4.48966e-011 4.46736e-027   
     length 3.67875   
     axis 180 30 90   XYZ
    dof rx
    limits (-10.0 170.0)
  end
  begin
     id 27 
     name rwrist
     direction -1 -4.48966e-011 7.20928e-028   
     length 1.83937   
     axis -5.52449e-016 -90 -90   XYZ
    dof ry
    limits (-180.0 0.0)
  end
  begin
     id 28
     name rhand
     direction -1 -4.48973e-011 1.44186e-027   
     length 0.594811   
     axis -9.20027e-016 -90 -90   XYZ
    dof rx rz
    limits (-90.0 90.0)
           (-45.0 45.0)
  end
  begin
     id 29
     name rfingers
     direction -1 -4.48963e-011 2.88371e-027   
     length 0.479552   
     axis -1.84005e-015 -90 -90   XYZ
    dof rx
    limits (0.0 90.0)
  end
  begin
     id 30
     name rthumb
     direction -0.707107 -6.34932e-011 0.707107   
     length 0.688544   
     axis -90 -45 -2.85299e-015   XYZ
    dof rx rz
    limits (-45.0 45.0)
           (-45.0 45.0)
  end
:hierarchy
  begin
    root lhipjoint rhipjoint lowerback
    lhipjoint lfemur
    lfemur ltibia
    ltibia lfoot
    lfoot ltoes
    rhipjoint rfemur
    rfemur rtibia
    rtibia rfoot
    rfoot rtoes
    lowerback upperback
    upperback thorax
    thorax lowerneck lclavicle rclavicle
    lowerneck upperneck
    upperneck head
    lclavicle lhumerus
    lhumerus lradius
    lradius lwrist
    lwrist lhand lthumb
    lhand lfingers
    rclavicle rhumerus
    rhumerus rradius
    rradius rwrist
    rwrist rhand rthumb
    rhand rfingers
  end

#!OML:ASF E:\acrobat2\Project_11_07_03\Capture day 1\Session 1\Acrobat.ASF
:FULLY-SPECIFIED
:DEGREES
746
root 10.7138 17.9886 25.1832 349.506 -83.0448 16.0678
lowerback -8.85035 -0.0141476 -2.64963
upperback -3.36343 0.135107 -2.79143
thorax 1.47418 0.0133829 -1.38139
lowerneck 0.950038 -2.23208 -0.431788
upperneck 0.175845 -2.99415 3.27374
head -0.0443963 -1.50966 1.07869
rclavicle -8.54774e-015 -2.22639e-014
rhumerus -17.0724 -41.9221 -1.63779
rradius 20.5983
rwrist 11.4968
rhand -17.315 -51.5999
rfingers 7.12502
rthumb 8.93138 278.609
lclavicle -8.54774e-015 -2.22639e-014
lhumerus 5.00202 16.9596 5.36019
lradius 21.4879
lwrist 7.15886
lhand -14.6522 -5.46864
lfingers 7.12502
lthumb 11.5002 24.1959
rfemur 16.2732 21.1672 8.66065
rtibia -4.0028
rfoot -42.1314 -30.434
rtoes 23.4616
lfemur 10.417 -8.34699 -9.06646
ltibia -3.33831
lfoot -195.957 177.189
ltoes 41.6116
747
root 10.7051 17.9855 25.1547 349.416 -83.0901 16.1612
lowerback -8.88002 -0.0290796 -2.66444
upperback -3.41321 0.113765 -2.78669
thorax 1.43877 0.0023373 -1.3703
lowerneck 1.08168 -2.17118 -0.258077
upperneck 0.0680706 -2.90665 3.10345
head -0.105607 -1.46744 0.998987
rclavicle -1.91827e-014 5.56597e-015
rhumerus -16.9708 -41.8441 -1.71401
rradius 20.603
rwrist 11.4993
rhand -17.3782 -51.4274
rfingers 7.12502
rthumb 8.87037 278.779
lclavicle -1.91827e-014 5.56597e-015
lhumerus 5.70938 20.4203 6.49436
lradius 20.4971
lwrist 3.63168
lhand -14.136 -6.16236
lfingers 7.12502
lthumb 11.998 23.4738
rfemur 16.2898 21.3163 8.78493
rtibia -4.03479
rfoot -41.9535 -30.7361
rtoes 22.3207
lfemur 10.4402 -8.72043 -9.07375
ltibia -3.29704
lfoot -196.399 177.056
ltoes 42.544
748
root 10.7012 17.984 25.1326 347.931 -82.9369 17.6328
lowerback -8.84338 0.00671143 -2.73232
upperback -3.43086 0.164014 -2.91292
thorax 1.40037 0.0261061 -1.4578
lowerneck 1.8735 -2.39638 0.472163
upperneck -0.937803 -3.16391 2.33819
head -0.560919 -1.60739 0.665797
rclavicle 4.37326e-015 -1.74931e-014
rhumerus -17.1807 -41.1257 -1.54877
rradius 20.68
rwrist 10.7863
rhand -17.4161 -51.407
rfingers 7.12502
rthumb 8.83384 278.798
lclavicle 4.37326e-015 -1.74931e-014
lhumerus 5.16547 17.248 5.75431
lradius 21.3621
lwrist 7.06412
lhand -14.531 -5.49325
lfingers 7.12502
lthumb 11.6171 24.1647
rfemur 16.3564 21.1821 8.5728
rtibia -4.12238
rfoot -41.5174 -31.3256
rtoes 20.1407
lfemur 10.4278 -9.38238 -9.43672
ltibia -3.19713
lfoot -197.019 177.138
ltoes 43.1374
749
root 10.6909 17.981 25.1011 347.833 -82.9883 17.6282
lowerback -8.81591 0.0200473 -2.75474
upperback -3.4108 0.183873 -2.89501
thorax 1.40596 0.0366432 -1.42465
lowerneck 2.39678 -2.49683 1.0167
upperneck -1.62365 -3.26952 1.70103
head -0.877678 -1.66449 0.399537
rclavicle -3.18055e-015 -3.18055e-014
rhumerus -17.1277 -40.4716 -1.5857
rradius 20.7702
rwrist 10.0382
rhand -17.3922 -51.5612
rfingers 7.12502
rthumb 8.85688 278.645
lclavicle -3.18055e-015 -3.18055e-014
lhumerus 4.90104 16.073 5.51758
lradius 21.654
lwrist 8.40569
lhand -15.0427 -5.37048
lfingers 7.12502
lthumb 11.1236 24.3147
rfemur 16.6125 21.4386 8.90724
rtibia -4.23263
rfoot -41.7454 -31.7178
rtoes 18.7676
lfemur 10.6107 -9.49885 -9.36612
ltibia -3.22229
lfoot -197.204 177.399
ltoes 42.4972
750
root 10.6757 17.9763 25.0593 348.048 -83.2687 17.2788
lowerback -8.80804 0.0225804 -2.86189
upperback -3.39939 0.195796 -2.82263
thorax 1.41268 0.0439815 -1.2884
lowerneck 1.28741 -2.05916 -0.123277
upperneck -0.025564 -2.75225 3.1354
head -0.172149 -1.39348 0.989364
rclavicle -3.8763e-015 1.11319e-014
rhumerus -16.8979 -40.2013 -1.84489
rradius 20.7754
rwrist 9.71358
rhand -17.2955 -51.6934
rfingers 7.12502
rthumb 8.95019 278.516
lclavicle -3.8763e-015 1.11319e-014
lhumerus 4.80261 16.5127 5.57981
lradius 21.5103
lwrist 7.92672
lhand -15.3031 -5.47587
lfingers 7.12502
lthumb 10.8724 24.2227
rfemur 16.9295 22.132 9.54746
rtibia -4.34284
rfoot -42.5577 -31.7796
rtoes 19.2055
lfemur 10.967 -9.39345 -9.10985
ltibia -3.43551
lfoot -197.221 177.724
ltoes 41.4779
751
root 10.665 17.972 25.0247 348.435 -83.4513 16.8718
lowerback -8.88496 0.0862692 -2.81345
upperback -3.4049 0.279307 -2.82976
thorax 1.4499 0.0847605 -1.31484
lowerneck 2.31106 -2.38515 0.880141
upperneck -1.5072 -3.127 1.76002
head -0.824621 -1.59167 0.435267
rclavicle -1.3418e-014 1.19271e-014
rhumerus -16.986 -39.5429 -1.90985
rradius 20.8388
rwrist 9.07056
rhand -17.1426 -51.7955
rfingers 7.12502
rthumb 9.09778 278.421
lclavicle -1.3418e-014 1.19271e-014
lhumerus 4.87004 16.7028 5.66793
lradius 21.4186
lwrist 7.77775
lhand -15.3941 -5.43326
lfingers 7.12502
lthumb 10.7847 24.2699
rfemur 17.0497 22.5995 10.0068
rtibia -4.35368
rfoot -43.2798 -31.6437
rtoes 19.9456
lfemur 11.1355 -9.58259 -8.96211
ltibia -3.59067
lfoot -197.521 177.967
ltoes 41.1332
752
root 10.657 17.9686 24.9972 348.85 -83.4161 16.4528
lowerback -8.9624 0.136117 -2.69572
upperback -3.38217 0.341279 -2.86762
thorax 1.51749 0.114393 -1.414
lowerneck 2.17898 -2.40537 0.750815
upperneck -1.34827 -3.1593 2.02937
head -0.747048 -1.60855 0.535245
rclavicle -2.68359e-015 -1.03368e-014
rhumerus -17.267 -38.7507 -1.81982
rradius 21.0467
rwrist 8.28506
rhand -17.0914 -51.732
rfingers 7.12502
rthumb 9.14717 278.486
lclavicle -2.68359e-015 -1.03368e-014
lhumerus 4.89468 16.0384 5.61161
lradius 21.5193
lwrist 8.65079
lhand -15.6954 -5.31872
lfingers 7.12502
lthumb 10.494 24.3993
rfemur 17.1427 22.5826 10.2583
rtibia -4.33817
rfoot -43.4235 -31.7095
rtoes 19.759
lfemur 11.1451 -9.87729 -8.89265
ltibia -3.59504
lfoot -197.868 178.364
ltoes 39.7771
753
root 10.6492 17.9649 24.9703 347.324 -83.2436 17.889
lowerback -8.88602 0.0532156 -2.93872
upperback -3.36915 0.248147 -2.89301
thorax 1.48676 0.068887 -1.31322
lowerneck 2.12568 -2.40464 0.504694
upperneck -1.23409 -3.16489 2.30781
head -0.695256 -1.612 0.658777
rclavicle 6.95746e-016 1.11319e-014
rhumerus -17.1731 -38.6549 -1.90224
rradius 21.1226
rwrist 8.25593
rhand -17.1861 -51.6186
rfingers 7.12502
rthumb 9.05578 278.596
lclavicle 6.95746e-016 1.11319e-014
lhumerus 4.68076 15.5775 5.53635
lradius 21.6223
lwrist 9.2859
lhand -16.1486 -5.35015
lfingers 7.12502
lthumb 10.0568 24.3895
rfemur 17.4278 22.5564 10.2641
rtibia -4.48753
rfoot -43.6732 -31.7011
rtoes 20.336
lfemur 11.2018 -10.0764 -9.09469
ltibia -3.50541
lfoot -197.978 178.623
ltoes 38.5436
754
root 10.6409 17.96 24.939 346.655 -83.1913 18.4433
lowerback -8.79448 -0.0518215 -3.13478
upperback -3.37336 0.119314 -2.87452
thorax 1.43068 0.00609957 -1.19666
lowerneck 2.22255 -2.30814 0.500014
upperneck -1.26323 -3.03403 2.34798
head -0.721245 -1.54797 0.672261
rclavicle 5.36719e-015 -4.29375e-014
rhumerus -16.8343 -39.7053 -2.03529
rradius 20.9262
rwrist 9.3866
rhand -17.1531 -51.5408
rfingers 7.12502
rthumb 9.08761 278.675
lclavicle 5.36719e-015 -4.29375e-014
lhumerus 4.42909 15.6699 5.48037
lradius 21.6278
lwrist 9.31017
lhand -16.4395 -5.46925
lfingers 7.12502
lthumb 9.77616 24.2838
rfemur 17.7232 22.6557 10.4381
rtibia -4.68978
rfoot -43.9716 -31.7381
rtoes 20.8207
lfemur 11.3349 -10.2175 -9.1269
ltibia -3.46583
lfoot -198.062 178.447
ltoes 39.3293
755
root 10.6327 17.9543 24.9039 348.209 -83.3039 16.831
lowerback -8.84588 -0.00571507 -2.92319
upperback -3.35263 0.167911 -2.88854
thorax 1.48168 0.0291181 -1.32522
lowerneck 2.39831 -2.29098 0.612624
upperneck -1.461 -3.00159 2.3374
head -0.814156 -1.5354 0.655149
rclavicle 6.65929e-015 -2.22639e-014
rhumerus -16.9021 -41.7928 -1.73497
rradius 20.6059
rwrist 11.4524
rhand -16.8477 -51.0709
rfingers 7.12502
rthumb 9.38228 279.158
lclavicle 6.65929e-015 -2.22639e-014
lhumerus 4.4532 15.3164 5.3469
lradius 21.6913
lwrist 9.84181
lhand -16.7939 -5.40253
lfingers 7.12502
lthumb 9.43417 24.3663
rfemur 17.8101 22.5647 10.8597
rtibia -4.71691
rfoot -43.7477 -32.0222
rtoes 19.8778
lfemur 11.4339 -10.3101 -8.76576
ltibia -3.50788
lfoot -198.159 178.229
ltoes 40.6377
756
root 10.6264 17.9498 24.8756 348.755 -83.3863 16.3027
lowerback -8.94707 0.106739 -2.75557
upperback -3.3512 0.308636 -2.94483
thorax 1.54081 0.0974014 -1.46371
lowerneck 1.33301 -1.94401 -0.591133
upperneck 0.0795387 -2.61249 3.98982
head -0.133632 -1.32799 1.3354
rclavicle 3.37934e-015 -2.3059e-014
rhumerus -17.2441 -42.4825 -1.28061
rradius 20.5249
rwrist 12.144
rhand -16.6336 -50.7325
rfingers 7.12502
rthumb 9.58886 279.506
lclavicle 3.37934e-015 -2.3059e-014
lhumerus 4.77953 15.4741 5.52932
lradius 21.5657
lwrist 9.73871
lhand -17.2639 -5.38363
lfingers 7.12502
lthumb 8.98071 24.4052
rfemur 17.722 22.3686 11.033
rtibia -4.64042
rfoot -43.2741 -32.5074
rtoes 18.1958
lfemur 11.4397 -10.3588 -8.57841
ltibia -3.51661
lfoot -198.229 177.893
ltoes 42.4681
757
root 10.6202 17.9451 24.8533 348.626 -83.4267 16.4421
lowerback -9.00676 0.124428 -2.77268
upperback -3.36913 0.334594 -2.90728
thorax 1.55494 0.110426 -1.41264
lowerneck 1.4882 -1.98186 -1.09193
upperneck -0.101251 -2.66463 4.40868
head -0.202296 -1.3596 1.55854
rclavicle 8.64713e-015 -2.14687e-014
rhumerus -17.2394 -41.8093 -1.24614
rradius 20.6852
rwrist 11.5368
rhand -16.6234 -51.0163
rfingers 7.12502
rthumb 9.59874 279.222
lclavicle 8.64713e-015 -2.14687e-014
lhumerus 5.17675 17.5223 6.25405
lradius 21.0413
lwrist 7.68873
lhand -17.4674 -5.68486
lfingers 7.12502
lthumb 8.78434 24.1123
rfemur 17.6592 22.1817 11.0592
rtibia -4.60841
rfoot -43.1461 -32.5828
rtoes 17.6456
lfemur 11.4633 -10.4458 -8.54476
ltibia -3.51427
lfoot -198.365 177.451
ltoes 44.3468
758
root 10.6133 17.9382 24.8279 348.339 -83.4112 16.6537
lowerback -8.97729 0.0409562 -2.85677
upperback -3.35431 0.230072 -2.8811
thorax 1.5529 0.0590484 -1.34891
lowerneck 1.83235 -1.99986 -1.09242
upperneck -0.587988 -2.67071 4.36329
head -0.410758 -1.37133 1.55395
rclavicle -1.90833e-014 3.26007e-014
rhumerus -16.9349 -41.2996 -1.6017
rradius 20.8077
rwrist 11.0485
rhand -16.6981 -51.4475
rfingers 7.12502
rthumb 9.5266 278.788
lclavicle -1.90833e-014 3.26007e-014
lhumerus 5.24702 19.1035 6.6328
lradius 20.7405
lwrist 6.29578
lhand -17.7217 -5.93525
lfingers 7.12502
lthumb 8.53888 23.8721
rfemur 17.7804 22.0304 11.1232
rtibia -4.63972
rfoot -43.3903 -32.2247
rtoes 18.6512
lfemur 11.5675 -10.6483 -8.5674
ltibia -3.50262
lfoot -198.565 177.492
ltoes 44.3223
759
root 10.6069 17.9308 24.7976 347.812 -83.3879 17.0439
lowerback -8.85763 -0.225842 -3.03935
upperback -3.30476 -0.111989 -2.69318
thorax 1.5376 -0.107749 -1.08598
lowerneck 2.05285 -1.78416 -1.23617
upperneck -1.03575 -2.37033 4.10033
head -0.596559 -1.22395 1.50098
rclavicle -1.30204e-014 -3.02153e-014
rhumerus -15.7357 -40.9737 -2.52588
rradius 20.7638
rwrist 10.6679
rhand -16.859 -51.7202
rfingers 7.12502
rthumb 9.3714 278.508
lclavicle -1.30204e-014 -3.02153e-014
lhumerus 4.39123 19.3949 6.34315
lradius 20.7961
lwrist 6.37659
lhand -18.1368 -5.9935
lfingers 7.12502
lthumb 8.13834 23.8298
rfemur 18.0312 22.125 11.3335
rtibia -4.71143
rfoot -43.6155 -32.4018
rtoes 18.8391
lfemur 11.6905 -10.6332 -8.52835
ltibia -3.44001
lfoot -198.566 178.091
ltoes 41.8675
